<svg id="Layer_1" data-name="Layer 1" xmlns="http://www.w3.org/2000/svg" viewBox="0 0 512 512"><defs><style>.cls-1{fill:#727272;}</style></defs><title>player-handdrawn</title><path class="cls-1" d="M511.64,430.95q.18,6.87.36,14a39.89,39.89,0,0,1-33,39.26c-7.69,1.13-12.75.45-18.63.62l-17.27,0-34.55-.07-69.1-.07-161.23,0h-131c-3.48,0-6.32.12-10.81-.2a40.45,40.45,0,0,1-22.52-9.7l0,0A40.4,40.4,0,0,1,.18,447.95L0,444.13V364.66H.87q.23-30.91.46-61.67.53-34.52,1.06-68.71c.15-8.08.31-17.24.24-25.37q-.21-55-.42-109.72l0-27.35,0-6.84a42.52,42.52,0,0,1,.86-7.9A38.12,38.12,0,0,1,36.35,27.33l3.95-.2h3.42l6.82,0,13.64.07,218.25,1.1L410.6,29c21.44.21,42.41.15,64.21.61a35.37,35.37,0,0,1,32.26,34.79l-.09,16c-.56,59.72-1.13,119.41-1.68,178.4-.4,33.24-1.12,65.83-1.9,97.23-.51,20.24-2.44,21.4-3.33,4.92-2.37-43.72-3.62-93.83-3.5-153.08q.08-48.36.15-96.77l0-24.2V68.73c0-2,0-4.14-.1-5.49-.61-12.44-11.9-23.23-24.41-23.11l-225.69,0H41.93c-1.28,0-2.22,0-3.07.08a16.9,16.9,0,0,0-2.68.3,24.63,24.63,0,0,0-9.91,4l0,0a25.34,25.34,0,0,0-9.6,12.72,27.18,27.18,0,0,0-1.31,8V364.66H322.54l64.38.24c61.52.72,106.22,4.52,116.77,9.75,5.53,2.75-17,5.27-49.7,5.57l-9.19,0-6.58-.08-4.48,0-12.87,0c-55.62-.64-111.91-.76-168.33-.78q-31.59,0-63.09-.06L13,379.25q.07,32.56.14,65A27.61,27.61,0,0,0,27.86,468.6a28.85,28.85,0,0,0,7,2.55,39.14,39.14,0,0,0,7.88.61l17.9.13,143.17,1c61.09.19,122,.94,182.8,1.57l63.88.74,15.92.22c5.38.1,10.43.31,15.3-1.4a31.83,31.83,0,0,0,20.72-21c1.8-5.53,1.4-11.49,1.62-17.37s.3-11.7.45-17.49q.56-17.37,1.1-34.21c.51-14.45,2.44-15.28,3.33-3.51C510.14,396.06,511,412.81,511.64,430.95Zm-144.77,1.4q23.07,0,46.14.22a158,158,0,0,0,36.49-3.5c3.93-.89,3.65-2.82-1.17-3.33-7.49-.79-15.25-1.5-23.18-1.9-14.06-.7-28.29-1.24-42.53-1.68-20.3-.63-40.64-1.37-61-1.57-34.73-.34-69.26-2.26-104.23-1a54.32,54.32,0,0,1-6-.24c-43-3.56-88-.58-131.4-2.66-1,0-2.05,0-3.07,0-10.91.3-18.44,2.82-16.6,5.57,3.52,5.23,18.45,9,39,9.75,7.08.25,14.32.24,21.5.24q69.25,0,138.49,0v0Q313,432.34,366.87,432.35ZM334.22,145.63A127.58,127.58,0,0,1,356,198c1.21,6.25,3.12,6,3.23-2.08a95.79,95.79,0,0,0-7.6-37.8c-9.12-22-26.73-40.7-48.45-51.8C272.37,90,232.86,90.49,202,108.23c-26.27,14.86-46.24,40.81-53.06,70.64a108,108,0,0,0-.69,45.51A104.06,104.06,0,0,0,167,266c2.15,2.64,4.12,6,6.41,8.47,5.73,7.58,13,13.9,20.65,19.78,8,5.33,16.46,10.33,25.77,13.4,18.37,6.89,38.75,7.79,58.1,4.26,39-7.68,72.11-37.23,85-74.29a32.81,32.81,0,0,0,1.54-5.31l1.55-6.89c.34-2.22.46-4.35.62-6.33s.24-3.83.26-5.51-.27-3.23-.46-4.58c-.74-5.4-1.95-7.81-3.4-6.23-5.62,5.81-8.57,31.08-28.4,56.63a103.87,103.87,0,0,1-24,23c-29.59,20.51-70.75,22.18-102,4.34a104.43,104.43,0,0,1-21.34-16.2,106.89,106.89,0,0,1-16.07-21.44,96.83,96.83,0,0,1-11.84-51.69h0c1.21-27.82,15.11-54.86,37.4-71.71a96.15,96.15,0,0,1,137.37,19.83Zm-112,79.53v2a30.12,30.12,0,0,0,.15,3.51,13.56,13.56,0,0,0,2.63,6.2,15.35,15.35,0,0,0,11.85,5.82,15.69,15.69,0,0,0,6.79-1.38l3.92-2L254,236l12.8-6.62,22-11.18q2.54-1.26,4.77-2.66l2.58-1.7a13.14,13.14,0,0,0,3.59-3.69,11.55,11.55,0,0,0,1.41-9.77,9.91,9.91,0,0,0-5.34-6.08c-3.41-1.15-3.43.93-1.53,3.07a6.34,6.34,0,0,1,.86,6.4c-.9,2-2.63,3-4.6,3.67-7,2.84-14,5.87-21,9-9.94,4.45-19.94,8.8-29.72,13.66-2.11,1.31-4.93.22-5.29-1.91l.54-11.93a261.79,261.79,0,0,0-.09-27.95,15.74,15.74,0,0,1,.24-3.24l.59-4.33c.17-1.38.33-3.33.46-3.12a1.24,1.24,0,0,1,1.22-.74,1.29,1.29,0,0,1,.55.14l.21.14,1.65.89,7.84,4.1c10.5,5.4,21.1,10.65,30.94,16.93a12.75,12.75,0,0,0,1.47.73c5.32,2.43,10.06,2,10.45-.85.74-5.51-4.61-12.56-14-18.27-3.25-2-6.7-3.75-10.1-5.51L250,166.67l-4.11-2.14-1.23-.64a18.59,18.59,0,0,0-2.07-.9,16.05,16.05,0,0,0-4.37-.95c-5.91-.4-11.95,2.64-14.52,7.94a13.56,13.56,0,0,0-1.31,4.15,38.48,38.48,0,0,0-.14,4.19v32.44h0Z"/></svg>